<svg xmlns="http://www.w3.org/2000/svg" xmlns:xlink="http://www.w3.org/1999/xlink" viewBox="0 0 99.96 99.96"><defs><style>.cls-1,.cls-4,.cls-5{fill:none;}.cls-2{clip-path:url(#clip-path);}.cls-3{fill:#f7f2ed;}.cls-4{stroke:#f7f2ed;}.cls-4,.cls-5{stroke-miterlimit:10;stroke-width:0.28px;}.cls-5{stroke:#004d6f;}.cls-6{fill:#004d6f;}</style><clipPath id="clip-path" transform="translate(-1.79 -1.79)"><rect class="cls-1" width="103.54" height="103.53"/></clipPath></defs><g id="Layer_2" data-name="Layer 2"><g id="Layer_1-2" data-name="Layer 1"><g class="cls-2"><path class="cls-3" d="M101.61,51.77a49.84,49.84,0,1,0-49.84,49.84,49.84,49.84,0,0,0,49.84-49.84" transform="translate(-1.79 -1.79)"/><circle class="cls-4" cx="51.77" cy="51.77" r="49.84" transform="matrix(0.99, -0.16, 0.16, 0.99, -9.41, 7.17)"/><path class="cls-5" d="M99.82,51.77a48.05,48.05,0,1,0-48,48A48.05,48.05,0,0,0,99.82,51.77Z" transform="translate(-1.79 -1.79)"/><path class="cls-6" d="M60.68,79.78a2.61,2.61,0,1,1,2.6,2.6,2.6,2.6,0,0,1-2.6-2.6" transform="translate(-1.79 -1.79)"/><polygon class="cls-6" points="54.17 80.63 51.85 58.2 65.58 46.86 65.44 46.2 51.55 54.78 50.91 45.22 56.55 38.97 56.5 38.59 50.83 43.61 50.32 33.34 49.94 33.72 49.15 52.03 48.89 56.15 31.16 48.76 31.14 49.91 48.51 61.2 46.54 80.63 54.17 80.63"/><path class="cls-6" d="M29.65,57A6.77,6.77,0,0,0,27,62.59a6.75,6.75,0,0,0,8.76-6.69A6.74,6.74,0,0,0,29.65,57" transform="translate(-1.79 -1.79)"/><path class="cls-6" d="M39.8,45.11a5.5,5.5,0,0,0-4.48-2.29,5.48,5.48,0,0,0,5.2,7.27,5.48,5.48,0,0,0-.72-5" transform="translate(-1.79 -1.79)"/><path class="cls-6" d="M48.92,47.74a5.8,5.8,0,0,0-3.21-4.26,5.81,5.81,0,0,0,1.59,9.35,5.8,5.8,0,0,0,1.62-5.09" transform="translate(-1.79 -1.79)"/><path class="cls-6" d="M64.47,38.26a4.68,4.68,0,0,0,1.07-4.17,4.69,4.69,0,0,0-5.09,5.72,4.66,4.66,0,0,0,4-1.55" transform="translate(-1.79 -1.79)"/><path class="cls-6" d="M47,28.89a4.6,4.6,0,0,0-4-1.19,4.59,4.59,0,0,0,5.41,5.18,4.6,4.6,0,0,0-1.36-4" transform="translate(-1.79 -1.79)"/><path class="cls-6" d="M54.24,27a5.91,5.91,0,0,0-2.62-4.73,5.89,5.89,0,0,0,.29,9.61A5.87,5.87,0,0,0,54.24,27" transform="translate(-1.79 -1.79)"/><path class="cls-6" d="M28.31,44a5.79,5.79,0,0,0-5.3-.26,5.79,5.79,0,0,0,8.15,4.74A5.8,5.8,0,0,0,28.31,44" transform="translate(-1.79 -1.79)"/><path class="cls-6" d="M28.73,40.42a5.21,5.21,0,0,0,4,2.71,5.24,5.24,0,0,0-4.06-7.52,5.21,5.21,0,0,0,.09,4.81" transform="translate(-1.79 -1.79)"/><path class="cls-6" d="M56.57,46.89a5.34,5.34,0,0,0-.43,4.85,5.31,5.31,0,0,0,4.63-7.31,5.31,5.31,0,0,0-4.2,2.46" transform="translate(-1.79 -1.79)"/><path class="cls-6" d="M46.22,39.44a4.32,4.32,0,0,0,3.17,2.43,4.35,4.35,0,0,0-3-6.42,4.35,4.35,0,0,0-.13,4" transform="translate(-1.79 -1.79)"/><path class="cls-6" d="M39.46,40.87a4.33,4.33,0,0,0,2.83,2.82,4.34,4.34,0,0,0-2.16-6.76,4.33,4.33,0,0,0-.67,3.94" transform="translate(-1.79 -1.79)"/><path class="cls-6" d="M28.71,55a4.36,4.36,0,0,0,2.45-3.16,4.36,4.36,0,0,0-6.45,3,4.37,4.37,0,0,0,4,.16" transform="translate(-1.79 -1.79)"/><path class="cls-6" d="M55.16,34.63a4.72,4.72,0,0,0-.33,4.31,4.7,4.7,0,0,0,4-6.54,4.7,4.7,0,0,0-3.7,2.23" transform="translate(-1.79 -1.79)"/><path class="cls-6" d="M57,26.35a4.7,4.7,0,0,0-.72,4.26,4.71,4.71,0,0,0,4.62-6.13A4.74,4.74,0,0,0,57,26.35" transform="translate(-1.79 -1.79)"/><path class="cls-6" d="M70,32.53a4.73,4.73,0,0,0-.69,4.27,4.71,4.71,0,0,0,4.57-6.18A4.69,4.69,0,0,0,70,32.53" transform="translate(-1.79 -1.79)"/><path class="cls-6" d="M74.8,37.39a4.68,4.68,0,0,0-3.36,2.72A4.71,4.71,0,0,0,79,38.55a4.71,4.71,0,0,0-4.16-1.16" transform="translate(-1.79 -1.79)"/><path class="cls-6" d="M64.79,41.63a4.69,4.69,0,0,0-.73,4.26,4.71,4.71,0,0,0,4.62-6.14,4.69,4.69,0,0,0-3.89,1.88" transform="translate(-1.79 -1.79)"/><path class="cls-6" d="M37.28,60.72a5.07,5.07,0,0,0-2.06,4.19A5.08,5.08,0,0,0,41.88,60a5.07,5.07,0,0,0-4.6.75" transform="translate(-1.79 -1.79)"/><path class="cls-6" d="M70.07,51.75a5.4,5.4,0,0,1,3.86,3.15,5.42,5.42,0,0,1-8.67-1.83,5.43,5.43,0,0,1,4.81-1.32" transform="translate(-1.79 -1.79)"/><path class="cls-6" d="M71.65,44.2a5.07,5.07,0,0,1,4.66.11,5.08,5.08,0,0,1-7.45,3.62,5,5,0,0,1,2.79-3.73" transform="translate(-1.79 -1.79)"/><path class="cls-6" d="M64.8,56.73a4.65,4.65,0,0,1,2,3.77,4.66,4.66,0,0,1-6.27-4.31,4.66,4.66,0,0,1,4.25.54" transform="translate(-1.79 -1.79)"/></g><path class="cls-1" d="M51.76,8.51h0q-.11.44-.24.87l-.46,1.4H52.5L52,9.39C51.91,9.07,51.83,8.79,51.76,8.51Z" transform="translate(-1.79 -1.79)"/><path class="cls-1" d="M93.22,50.54A1.72,1.72,0,0,0,95,48.46a3.77,3.77,0,0,0-.12-.72L91,48a4.57,4.57,0,0,0,0,.63A1.85,1.85,0,0,0,93.22,50.54Z" transform="translate(-1.79 -1.79)"/><path class="cls-1" d="M70.17,12.47c-.94-.43-1.8.23-2.24,1.19a1.73,1.73,0,0,0,.58,2.42c.9.41,1.79-.19,2.24-1.18A1.74,1.74,0,0,0,70.17,12.47Z" transform="translate(-1.79 -1.79)"/><path class="cls-1" d="M32.79,15.12l-.46.23L33.17,17a2.8,2.8,0,0,0,.48-.21c.57-.29,1-.77.67-1.4S33.4,14.81,32.79,15.12Z" transform="translate(-1.79 -1.79)"/><path class="cls-1" d="M74.54,14.85a2.77,2.77,0,0,0-.55-.28l-.94,1.5.54.33A1,1,0,0,0,75,16.21C75.33,15.68,75.09,15.21,74.54,14.85Z" transform="translate(-1.79 -1.79)"/><path class="cls-1" d="M45.88,8.82a3.27,3.27,0,0,0-.72.16l.5,3.77a3.72,3.72,0,0,0,.63,0,1.86,1.86,0,0,0,1.77-2.3A1.72,1.72,0,0,0,45.88,8.82Z" transform="translate(-1.79 -1.79)"/><path class="cls-1" d="M33.19,13.48c-.26-.5-.74-.51-1.3-.22a2.2,2.2,0,0,0-.47.29l.7,1.38.5-.25C33.21,14.38,33.4,13.9,33.19,13.48Z" transform="translate(-1.79 -1.79)"/><path class="cls-1" d="M13.71,35.53a1.74,1.74,0,0,0-2.38.76c-.35,1,.36,1.78,1.35,2.15a1.73,1.73,0,0,0,2.37-.77C15.39,36.74,14.73,35.9,13.71,35.53Z" transform="translate(-1.79 -1.79)"/><path class="cls-1" d="M57.64,9.71c.07-.62-.34-1-1-1a2.69,2.69,0,0,0-.61,0l-.21,1.75.63.08A1,1,0,0,0,57.64,9.71Z" transform="translate(-1.79 -1.79)"/><path class="cls-1" d="M84.73,25c.48-.4.4-.92,0-1.43a2.63,2.63,0,0,0-.44-.43l-1.35,1.13.41.49A.94.94,0,0,0,84.73,25Z" transform="translate(-1.79 -1.79)"/><path class="cls-1" d="M87.3,28.71l-1.42.36.79,1.22.91-1.15a7.08,7.08,0,0,1,.6-.69v0Z" transform="translate(-1.79 -1.79)"/><path class="cls-6" d="M11.61,59.67c-.79.14-1.36.25-1.95.39v0a16.17,16.17,0,0,0,1.43-1.16L13.23,57l-.11-.62-4.75.82.1.58,2-.34c.74-.13,1.32-.25,1.94-.41h0A13.7,13.7,0,0,0,11,58.11L8.87,60.05l.12.67,4.75-.82-.1-.58Z" transform="translate(-1.79 -1.79)"/><polygon class="cls-6" points="11.09 50.2 10.57 50.22 10.66 52.31 8.92 52.38 8.84 50.51 8.32 50.53 8.4 52.41 6.88 52.47 6.8 50.49 6.27 50.51 6.39 53.12 11.21 52.91 11.09 50.2"/><path class="cls-6" d="M13,48.7l-2.44-.92c-.6-.23-1.06-.39-1.53-.52h0a15.68,15.68,0,0,0,1.6-.17l2.55-.36.07-.65L8.59,44.25l-.06.63,2.36.87c.59.21,1.11.39,1.63.54v0c-.52,0-1.1.09-1.68.17l-2.49.36-.06.64,2.36.88c.6.22,1.16.42,1.63.55h0c-.48,0-1.09.11-1.7.2l-2.48.34L8,50.11,13,49.35Z" transform="translate(-1.79 -1.79)"/><polygon class="cls-6" points="8.4 38.2 7.88 38.08 7.06 41.55 7.58 41.68 7.92 40.25 12.09 41.23 12.24 40.62 8.06 39.63 8.4 38.2"/><path class="cls-6" d="M13.91,34.9a2.19,2.19,0,0,0-3,1.19,2.29,2.29,0,0,0,1.6,3,2.23,2.23,0,0,0,3-1.19A2.26,2.26,0,0,0,13.91,34.9Zm1.14,2.77a1.73,1.73,0,0,1-2.37.77c-1-.37-1.7-1.18-1.35-2.15a1.74,1.74,0,0,1,2.38-.76C14.73,35.9,15.39,36.74,15.05,37.67Z" transform="translate(-1.79 -1.79)"/><path class="cls-6" d="M13.84,29.94l1.78.94a18.15,18.15,0,0,0,1.79.87h0a13.84,13.84,0,0,0-1.79,0L12.73,32l-.31.6,4.26,2.26.27-.52-1.82-1c-.71-.37-1.23-.63-1.78-.88v0a14.47,14.47,0,0,0,1.85,0l2.88-.2.29-.56-4.26-2.26Z" transform="translate(-1.79 -1.79)"/><rect class="cls-6" x="18.62" y="25.79" width="3.15" height="0.43" transform="translate(-14.52 23.74) rotate(-51.33)"/><path class="cls-6" d="M24.67,17.34l-.47.42,1.87,2.15c.7.81.66,1.47.12,1.94s-1.15.39-1.86-.43l-1.87-2.16-.48.41,1.87,2.15c1,1.13,1.91,1.07,2.65.42s1-1.65,0-2.77Z" transform="translate(-1.79 -1.79)"/><polygon class="cls-6" points="27.39 13.06 27.1 12.62 24.14 14.62 24.43 15.05 25.65 14.23 28.04 17.8 28.57 17.45 26.17 13.88 27.39 13.06"/><path class="cls-6" d="M33.48,14.47v0a1.14,1.14,0,0,0,.25-1.31,1,1,0,0,0-.74-.58,2,2,0,0,0-1.34.29,6.72,6.72,0,0,0-1,.6l2.15,4.23a6.22,6.22,0,0,0,.89-.38A2.42,2.42,0,0,0,35,16.14a1.3,1.3,0,0,0-.08-1.05A1.22,1.22,0,0,0,33.48,14.47Zm-2.06-.92a2.2,2.2,0,0,1,.47-.29c.56-.29,1-.28,1.3.22s0,.9-.57,1.2l-.5.25Zm2.23,3.23a2.8,2.8,0,0,1-.48.21l-.84-1.64.46-.23c.61-.31,1.24-.32,1.53.26S34.22,16.49,33.65,16.78Z" transform="translate(-1.79 -1.79)"/><rect class="cls-6" x="36.54" y="10.76" width="0.62" height="4.82" transform="translate(-4.07 11.97) rotate(-20.53)"/><polygon class="cls-6" points="39.6 11.86 38.52 7.7 37.92 7.86 39.13 12.53 41.73 11.85 41.6 11.35 39.6 11.86"/><path class="cls-6" d="M47.8,8.67a2.83,2.83,0,0,0-2-.34,9.14,9.14,0,0,0-1.3.28l.63,4.7a8.47,8.47,0,0,0,1.13-.09,2.94,2.94,0,0,0,2-1,2.52,2.52,0,0,0,.44-1.95A2.23,2.23,0,0,0,47.8,8.67Zm-1.51,4a3.72,3.72,0,0,1-.63,0L45.16,9a3.27,3.27,0,0,1,.72-.16,1.72,1.72,0,0,1,2.18,1.59A1.86,1.86,0,0,1,46.29,12.71Z" transform="translate(-1.79 -1.79)"/><path class="cls-6" d="M51.39,8l-1.61,4.83h.65l.49-1.52h1.71l.52,1.51h.67L52.14,8Zm-.34,2.82.46-1.4q.14-.44.24-.87h0c.07.28.15.56.26.88l.48,1.38Z" transform="translate(-1.79 -1.79)"/><path class="cls-6" d="M58.26,9.71a1.22,1.22,0,0,0-.26-1,2,2,0,0,0-1.34-.55,6.28,6.28,0,0,0-1.2,0l-.57,4.72.62.07.25-2.07.58.07c.56.09.79.37.85,1.05a6.3,6.3,0,0,0,.18,1.18l.64.07a8.85,8.85,0,0,1-.21-1.35,1.2,1.2,0,0,0-.59-1.06v0A1.25,1.25,0,0,0,58.26,9.71Zm-1.81.78-.63-.08L56,8.66a2.69,2.69,0,0,1,.61,0c.66.08,1.07.41,1,1A1,1,0,0,1,56.45,10.49Z" transform="translate(-1.79 -1.79)"/><polygon class="cls-6" points="60.71 12.48 61.3 12.67 61.96 10.59 63.7 11.14 63.86 10.65 62.12 10.1 62.6 8.57 64.49 9.17 64.65 8.67 62.17 7.88 60.71 12.48"/><path class="cls-6" d="M70.41,12a2.3,2.3,0,0,0-3.1,1.37,2.22,2.22,0,0,0,1,3.13,2.26,2.26,0,0,0,3.09-1.38A2.2,2.2,0,0,0,70.41,12Zm.34,2.88c-.45,1-1.34,1.59-2.24,1.18a1.73,1.73,0,0,1-.58-2.42c.44-1,1.3-1.62,2.24-1.19A1.74,1.74,0,0,1,70.75,14.9Z" transform="translate(-1.79 -1.79)"/><path class="cls-6" d="M70.34,11.31a.34.34,0,0,0-.16-.47.36.36,0,0,0-.47.18.36.36,0,0,0,.17.48A.34.34,0,0,0,70.34,11.31Z" transform="translate(-1.79 -1.79)"/><path class="cls-6" d="M71.55,11.86a.33.33,0,0,0-.16-.46.35.35,0,0,0-.47.17.35.35,0,0,0,.16.48A.34.34,0,0,0,71.55,11.86Z" transform="translate(-1.79 -1.79)"/><path class="cls-6" d="M74.76,14.42a8.45,8.45,0,0,0-1.07-.55l-2.53,4,.53.33,1.11-1.77.5.31c.47.32.55.67.32,1.31a7.3,7.3,0,0,0-.34,1.14l.55.34a7.31,7.31,0,0,1,.38-1.31,1.21,1.21,0,0,0-.08-1.21h0a1.27,1.27,0,0,0,1.43-.57,1.22,1.22,0,0,0,.16-1A2,2,0,0,0,74.76,14.42ZM75,16.21a1,1,0,0,1-1.41.19l-.54-.33.94-1.5a2.77,2.77,0,0,1,.55.28C75.09,15.21,75.33,15.68,75,16.21Z" transform="translate(-1.79 -1.79)"/><polygon class="cls-6" points="79.28 20.31 77.94 19.07 79.04 17.89 80.48 19.24 80.84 18.86 78.94 17.09 75.65 20.61 76.1 21.04 77.59 19.44 78.93 20.69 79.28 20.31"/><path class="cls-6" d="M83.64,25.55h0a1.27,1.27,0,0,0,1.53-.1,1.19,1.19,0,0,0,.45-.88,2,2,0,0,0-.59-1.32,6.79,6.79,0,0,0-.85-.85l-3.64,3.06.4.48,1.6-1.35.38.45c.35.45.32.81-.1,1.35a5.88,5.88,0,0,0-.67,1l.41.49a7.16,7.16,0,0,1,.78-1.14A1.18,1.18,0,0,0,83.64,25.55Zm-.31-.78-.41-.49,1.35-1.13a2.63,2.63,0,0,1,.44.43c.42.51.5,1,0,1.43A.94.94,0,0,1,83.33,24.77Z" transform="translate(-1.79 -1.79)"/><path class="cls-6" d="M88.44,27.84,83.5,29.09l.35.54,1.55-.41.93,1.44-1,1.26.37.56,3.15-4Zm-.86,1.3-.91,1.15-.79-1.22,1.42-.36.87-.28v0A7.08,7.08,0,0,0,87.58,29.14Z" transform="translate(-1.79 -1.79)"/><path class="cls-6" d="M92.14,34.76l-2.48.2a16.35,16.35,0,0,0-1.69.22v0c.41-.32.82-.69,1.28-1.12L91,32.31l-.33-.72L86.16,33.3l.25.54,1.93-.75c.67-.26,1.42-.56,2-.8h0c-.46.36-.95.8-1.47,1.29l-1.76,1.67.2.43,2.48-.21c.7,0,1.33-.12,1.92-.21v0c-.55.25-1.27.62-1.87.94l-1.87,1,.25.55,4.26-2.28Z" transform="translate(-1.79 -1.79)"/><polygon class="cls-6" points="91.92 39.28 92.43 39.13 91.41 35.71 90.9 35.86 91.32 37.27 87.2 38.49 87.38 39.1 91.5 37.87 91.92 39.28"/><rect class="cls-6" x="89.91" y="43.3" width="4.82" height="0.62" transform="translate(-8.2 15.8) rotate(-10.52)"/><path class="cls-6" d="M90.53,48.55a3,3,0,0,0,.84,2.08,2.58,2.58,0,0,0,1.92.56,2.19,2.19,0,0,0,1.68-.8,2.74,2.74,0,0,0,.47-2,8.65,8.65,0,0,0-.2-1.31l-4.73.33A11.26,11.26,0,0,0,90.53,48.55ZM91,48l3.8-.26a3.77,3.77,0,0,1,.12.72,1.72,1.72,0,0,1-1.73,2.08A1.85,1.85,0,0,1,91,48.63,4.57,4.57,0,0,1,91,48Z" transform="translate(-1.79 -1.79)"/><polygon class="cls-6" points="88.92 50.72 88.77 53.42 89.29 53.45 89.41 51.37 91.14 51.46 91.04 53.34 91.55 53.36 91.66 51.49 93.18 51.58 93.07 53.56 93.59 53.59 93.73 50.98 88.92 50.72"/><path class="cls-6" d="M90.25,57.64l2,.39c.79.15,1.36.24,2,.32v0a15.68,15.68,0,0,0-1.75.59L89.8,60l-.11.62,4.73.9.11-.57-2-.38c-.74-.14-1.32-.24-2-.3v0a14.38,14.38,0,0,0,1.7-.55L95,58.63,95.1,58l-4.74-.9Z" transform="translate(-1.79 -1.79)"/></g></g></svg>