<svg xmlns="http://www.w3.org/2000/svg" viewBox="0 0 84.582 17.583"><g data-name="Group 11254" fill="#f7f2ed"><path data-name="Path 6192" d="M80.982 3.221H80.3v-.227h1.592v.227h-.682v2.16h-.265v-2.16Zm1.326-.227h.417l.72 2.16.72-2.16h.417v2.35h-.265V3.221l-.758 2.16h-.341l-.72-2.16v2.16h-.227V2.994Z"/><path data-name="Path 6193" d="M3.259 13.491V2.463l9.815 14.7a.418.418 0 0 0 .265.114h.947a.179.179 0 0 0 .189-.189V3.79a14.286 14.286 0 0 1 .114-1.478A2 2 0 0 1 16.56.569h.076a.179.179 0 0 0 .189-.189V.191a.179.179 0 0 0-.189-.189h-.985c-.379 0-1.023.114-1.629.114-.606 0-1.251-.114-1.629-.114h-.985a.179.179 0 0 0-.189.189v.265a.179.179 0 0 0 .189.189h.076a1.972 1.972 0 0 1 1.971 1.743 14.286 14.286 0 0 1 .114 1.478v8.943L5.078.152A.476.476 0 0 0 4.7 0h-.568c-.379 0-1.023.114-1.629.114C1.897.114 1.252 0 .874 0H.192a.179.179 0 0 0-.189.189v.265a.179.179 0 0 0 .189.189h.076a1.972 1.972 0 0 1 1.971 1.743 14.286 14.286 0 0 1 .114 1.478v9.663a14.286 14.286 0 0 1-.114 1.478 2 2 0 0 1-1.971 1.743H.192a.179.179 0 0 0-.189.189v.263a.179.179 0 0 0 .189.189h.985c.379 0 1.023-.114 1.629-.114.606 0 1.251.114 1.629.114h.985a.179.179 0 0 0 .189-.189v-.265a.179.179 0 0 0-.189-.189h-.076a1.972 1.972 0 0 1-1.971-1.743 8.867 8.867 0 0 1-.114-1.516Zm63.474.265a7.1 7.1 0 0 1-1.213 2.008 5.936 5.936 0 0 1-1.857 1.326 6.1 6.1 0 0 1-2.387.493 6.59 6.59 0 0 1-2.312-.417 5.15 5.15 0 0 1-2.956-3.032 6.8 6.8 0 0 1-.417-2.35v-.264a6.819 6.819 0 0 1 .455-2.5 7.1 7.1 0 0 1 1.213-2.008 5.689 5.689 0 0 1 1.895-1.326 6.1 6.1 0 0 1 2.387-.493 6.589 6.589 0 0 1 2.312.417 5.214 5.214 0 0 1 1.781 1.175A5.374 5.374 0 0 1 66.809 8.6a6.859 6.859 0 0 1 .417 2.387v.265a7.529 7.529 0 0 1-.493 2.504Zm-2.387-2.387q0-5.457-2.956-5.457t-2.956 5.457q0 5.457 2.956 5.457t2.956-5.457ZM41.23 17.432 51.424 6.063h3.145a.179.179 0 0 0 .189-.189v-.265a.179.179 0 0 0-.189-.189h-3.145a.111.111 0 0 1-.114-.114V1.857c0-.265-.265-.152-.265-.152l-1.592.8a.505.505 0 0 0-.265.341s-.341 2.008-.417 2.274c-.076.3-.3.3-.3.3h-5.76a.179.179 0 0 0-.189.189v.265a.179.179 0 0 0 .189.189h.531a.938.938 0 0 1 .947.947 1.106 1.106 0 0 1-.076.341l-2.312 6.4-.114.493-.114-.493-2.086-5.641-.265-.758a1.107 1.107 0 0 1-.076-.341.938.938 0 0 1 .947-.947h.379a.179.179 0 0 0 .189-.189V5.61a.179.179 0 0 0-.189-.189h-.985c-.379 0-1.023.114-1.63.114-.606 0-1.251-.114-1.629-.114h-.985a.179.179 0 0 0-.189.189v.265a.179.179 0 0 0 .189.189h.568a.938.938 0 0 1 .947.947.834.834 0 0 1-.038.3l-.189.568-2.046 5.836-.114.493-.114-.493-2.35-6.063-.114-.341a1.106 1.106 0 0 1-.076-.341.938.938 0 0 1 .947-.947h.379a.179.179 0 0 0 .189-.189v-.265a.179.179 0 0 0-.189-.189h-.985c-.379 0-1.288.114-1.895.114-.606 0-1.251-.114-1.63-.114H27.1a.179.179 0 0 0-.189.189v.3a.179.179 0 0 0 .189.189c.152 0 1.4.038 1.667.758l4.206 10.27.076.227s.076.152.189.152h.606a.28.28 0 0 0 .227-.152l.076-.227 2.8-8.11.114-.493.114.493 3.032 8.11.076.227s.076.152.189.152h.606a.28.28 0 0 0 .227-.152l.076-.227 3.79-10.27c.265-.644.947-.758 1.629-.758h1.63c.152 0 .114.114.114.114v9.436a3.04 3.04 0 0 0 1.213 1.44 3.674 3.674 0 0 0 2.008.493 2.9 2.9 0 0 0 2.046-.758 2.6 2.6 0 0 0 .8-1.971v-.606a.891.891 0 0 0-.265-.72.682.682 0 0 0-.568-.265.111.111 0 0 0-.114.114v1.478a2.088 2.088 0 0 1-.341 1.288 1.1 1.1 0 0 1-.947.455c-.834 0-1.251-.72-1.251-2.084v-8.3c.189 0 .189-.114.3-.114Zm38.35-1.743c0 .872 1.137.985 1.288.985h.379a.179.179 0 0 1 .189.189v.265a.179.179 0 0 1-.189.189h-1.44c-.341 0-.947-.114-1.554-.114-.568 0-1.175.114-1.516.114H75.3a.179.179 0 0 1-.189-.189v-.265a.179.179 0 0 1 .189-.189h.379c.152 0 1.288-.114 1.288-.985v-7.92a1.928 1.928 0 0 0-1.857-1.326 2.618 2.618 0 0 0-1.819.758 4.937 4.937 0 0 0-1.251 2.16v6.291c0 .872 1.137.985 1.288.985h.379a.179.179 0 0 1 .189.189v.265a.179.179 0 0 1-.189.189h-1.44c-.341 0-.947-.114-1.554-.114-.568 0-1.175.114-1.516.114h-1.44a.179.179 0 0 1-.189-.189v-.265a.179.179 0 0 1 .189-.189h.379c.152 0 1.288-.114 1.288-.985V6.973a.938.938 0 0 0-.947-.947h-.568a.179.179 0 0 1-.189-.189v-.265a.179.179 0 0 1 .189-.189h3.979a.111.111 0 0 1 .114.114v2.35a4.521 4.521 0 0 1 4.093-2.728 3.465 3.465 0 0 1 2.122.682 4.082 4.082 0 0 1 1.364 1.933Zm-52.144-5.154a.26.26 0 0 1-.265.265h-7.655a.111.111 0 0 0-.114.114v.872a5.725 5.725 0 0 0 .947 3.524 3.06 3.06 0 0 0 2.577 1.251 3.244 3.244 0 0 0 2.274-.834 4.514 4.514 0 0 0 1.251-2.387s.038-.189.189-.189h.189a.526.526 0 0 1 .379.189.679.679 0 0 1 .152.531 4.532 4.532 0 0 1-.606 1.516 5.232 5.232 0 0 1-1.061 1.175 5.775 5.775 0 0 1-1.44.758 5.027 5.027 0 0 1-1.705.265 5.943 5.943 0 0 1-4.358-1.555 6.1 6.1 0 0 1-1.554-4.4v-.265a6.619 6.619 0 0 1 .455-2.463A6.892 6.892 0 0 1 18.3 6.935a5.1 5.1 0 0 1 1.9-1.289 6.093 6.093 0 0 1 2.387-.455 4.515 4.515 0 0 1 1.933.379 4.866 4.866 0 0 1 1.516 1.1 6.375 6.375 0 0 1 1.023 1.705 7.8 7.8 0 0 1 .379 2.16Zm-3.373-3.6a2.015 2.015 0 0 0-1.743-.985 2.26 2.26 0 0 0-1.895 1.061 6.227 6.227 0 0 0-.947 3.032h5a.26.26 0 0 0 .265-.265 5.23 5.23 0 0 0-.68-2.843Z"/></g></svg>